# xmcd
#
# Track frame offsets:
#	150
#	11340
#	23916
#	38962
#	48475
#	64891
#	77208
#	85824
#	100698
#	111571
#	124111
#	133234
#	148450
#	177487
#
# Disc length: 2481 seconds
#
# Revision: 1
# Processed by: cddbd v1.5.2PL0 Copyright (c) Steve Scherf et al.
# Submitted via: audiograbber 1.83.01
#
DISCID=cb09af0e
DTITLE=Lodger, The - Grown-Ups
DYEAR=2006
DGENRE=Guitarpop
TTITLE0=Many Thanks For Your Honest Opinion
TTITLE1=Kicking Sand
TTITLE2=Getting Special
TTITLE3=You Got Me Wrong
TTITLE4=A Free Period
TTITLE5=Simply Left Behind
TTITLE6=My Advice Is On Loan
TTITLE7=Let Her Go
TTITLE8=Watching
TTITLE9=Unsatisfied
TTITLE10=The Story's Over
TTITLE11=Not So Fast
TTITLE12=Bye Bye
TTITLE13=Let's Make A Pact
EXTD=
EXTT0=
EXTT1=
EXTT2=
EXTT3=
EXTT4=
EXTT5=
EXTT6=
EXTT7=
EXTT8=
EXTT9=
EXTT10=
EXTT11=
EXTT12=
EXTT13=
PLAYORDER=
